<?xml version="1.0" encoding="UTF-8"?>
<svg id="Layer_1" data-name="Layer 1" xmlns="http://www.w3.org/2000/svg" viewBox="0 0 1000 320">
  <defs>
    <style>
      .cls-1 {
        fill: #f9f9f9;
      }
    </style>
  </defs>
  <g>
    <polygon class="cls-1" points="100.81 135.4 100.81 200.9 157.53 233.65 214.25 200.9 214.25 135.4 157.53 102.65 100.81 135.4"/>
    <g>
      <g>
        <path d="M177.75,201.3c-6.58,1.79-12.61.1-17.38-4.8-6.61-6.79-6.13-18.48.22-25,7.19-7.39,18.15-6.99,24.57-.4,4.52,4.64,6.67,11.09,4.61,18.18l-4.19-4.3c.29-4.01-.55-7.45-3.35-10.33-5-5.13-13.09-4.77-17.83.1-5,5.13-5.64,13.55-.74,18.58,2.48,2.55,5.68,3.84,9.8,3.58l4.29,4.4h0Z"/>
        <path d="M137.31,134.99c6.58-1.79,12.61-.1,17.38,4.8,6.61,6.79,6.13,18.48-.22,25-7.19,7.39-18.15,6.99-24.57.4-4.52-4.64-6.67-11.09-4.61-18.18l4.19,4.3c-.29,4.01.55,7.45,3.35,10.33,5,5.13,13.09,4.77,17.83-.1,5-5.13,5.64-13.55.74-18.58-2.48-2.55-5.68-3.84-9.8-3.58l-4.29-4.4h0Z"/>
      </g>
      <g>
        <path d="M125.25,188.92c-1.74-6.76-.1-12.95,4.67-17.85,6.61-6.79,17.99-6.29,24.34.23,7.19,7.39,6.8,18.65.39,25.24-4.52,4.64-10.8,6.85-17.7,4.74l4.19-4.3c3.9.3,7.25-.56,10.06-3.44,5-5.13,4.64-13.45-.1-18.31-5-5.13-13.19-5.8-18.09-.76-2.48,2.55-3.74,5.83-3.48,10.07l-4.29,4.4v-.02Z"/>
        <path d="M189.81,147.38c1.74,6.76.1,12.95-4.67,17.85-6.61,6.79-17.99,6.29-24.34-.23-7.19-7.39-6.8-18.65-.39-25.24,4.52-4.64,10.8-6.85,17.7-4.74l-4.19,4.3c-3.9-.3-7.25.56-10.06,3.44-5,5.13-4.64,13.45.1,18.31,5,5.13,13.19,5.8,18.09.76,2.48-2.55,3.74-5.83,3.48-10.07l4.29-4.4v.02Z"/>
      </g>
    </g>
  </g>
  <g>
    <path class="cls-1" d="M340.33,190.79c-9.35,15.6-24.19,23.82-42.65,23.82-25.56,0-46.65-22.25-46.65-46.08,0-26.97,21.95-46.8,46.78-46.8,17.45,0,33.79,7.74,43.15,24.55h-16.22c-6.98-7.86-15.08-12.58-25.94-12.58-19.33,0-34.29,15.84-34.29,33.62,0,18.74,14.59,35.31,33.55,35.31,9.6,0,18.21-3.62,25.7-11.85h16.58,0Z"/>
    <path class="cls-1" d="M352.12,212.92v-89.49h12.97v89.49h-12.97Z"/>
    <path class="cls-1" d="M431.05,212.92v-7.26h-.25c-3.37,5.68-11.23,8.95-20.33,8.95-14.84,0-28.8-7.74-28.8-31.32v-37.37h12.97v36.4c0,14.03,5.36,20.8,17.21,20.8s18.09-8.1,18.09-21.04v-36.16h12.97v67h-11.86Z"/>
    <path class="cls-1" d="M486.74,163.7c-.63-4.84-3.5-8.1-8.86-8.1-4.99,0-8.1,3.26-8.1,7.13,0,5.69,5.99,7.38,12.85,9.44,9.72,2.9,18.71,8.58,18.71,21.04s-9.73,21.4-23.2,21.4c-12.47,0-24.44-8.22-24.44-23.7h12.97c.62,8.1,4.86,12.21,11.73,12.21,5.98,0,9.97-3.74,9.97-9.19,0-4.59-3.62-7.62-11.73-10.15-16.97-5.2-19.83-12.34-19.83-19.95,0-11.85,10.35-19.71,21.7-19.71s20.83,7.74,21.2,19.59h-12.97Z"/>
    <path class="cls-1" d="M515.76,212.92v-55.51h-9.36v-11.49h9.36v-22.49h12.97v22.49h11.35v11.49h-11.35v55.51h-12.97Z"/>
    <path class="cls-1" d="M558.27,184.86c2.99,11.12,12.1,18.25,22.7,18.25,8.1,0,15.71-4.11,19.7-11.24h12.98c-5.36,13.78-18.34,22.73-33.18,22.73-19.45,0-35.16-16.69-35.16-34.59,0-21.16,16.46-35.91,34.79-35.91,20.33,0,35.8,15.24,35.8,34.47,0,2.05,0,3.99-.37,6.29h-57.26ZM602.92,175.19c-.99-11.37-11.34-19.59-22.45-19.59s-21.19,8.1-22.2,19.59h44.65Z"/>
    <path class="cls-1" d="M628.81,212.92v-67h12.1v6.05h.24c3.13-4.48,8.49-7.38,17.59-7.86v12.94c-11.23.36-16.97,7.02-16.97,18.26v37.61h-12.97,0Z"/>
    <path class="cls-1" d="M699,212.92l-37.17-89.49h14.47l26.82,67.12,26.81-67.12h14.22l-37.05,89.49h-8.1Z"/>
    <path class="cls-1" d="M749.58,138.18v-14.75h12.97v14.75h-12.97ZM749.58,212.92v-67h12.97v67h-12.97Z"/>
    <path class="cls-1" d="M806.44,163.7c-.63-4.84-3.5-8.1-8.86-8.1-4.99,0-8.1,3.26-8.1,7.13,0,5.69,5.99,7.38,12.85,9.44,9.72,2.9,18.71,8.58,18.71,21.04s-9.73,21.4-23.2,21.4c-12.47,0-24.44-8.22-24.44-23.7h12.97c.62,8.1,4.86,12.21,11.73,12.21,5.98,0,9.97-3.74,9.97-9.19,0-4.59-3.62-7.62-11.73-10.15-16.97-5.2-19.83-12.34-19.83-19.95,0-11.85,10.35-19.71,21.7-19.71s20.83,7.74,21.2,19.59h-12.97Z"/>
    <path class="cls-1" d="M841.57,184.86c2.99,11.12,12.1,18.25,22.7,18.25,8.1,0,15.71-4.11,19.7-11.24h12.98c-5.36,13.78-18.34,22.73-33.18,22.73-19.45,0-35.16-16.69-35.16-34.59,0-21.16,16.46-35.91,34.79-35.91,20.33,0,35.8,15.24,35.8,34.47,0,2.05,0,3.99-.37,6.29h-57.26ZM886.21,175.19c-.99-11.37-11.34-19.59-22.45-19.59s-21.19,8.1-22.2,19.59h44.65Z"/>
  </g>
</svg>